<?xml version="1.0" encoding="utf-8"?>
<!-- Generator: Adobe Illustrator 18.0.0, SVG Export Plug-In . SVG Version: 6.00 Build 0)  -->
<!DOCTYPE svg PUBLIC "-//W3C//DTD SVG 1.1//EN" "http://www.w3.org/Graphics/SVG/1.1/DTD/svg11.dtd">
<svg version="1.1" id="Layer_1" xmlns="http://www.w3.org/2000/svg" xmlns:xlink="http://www.w3.org/1999/xlink" x="0px" y="0px"
	 viewBox="0 0 79.7 26.3" enable-background="new 0 0 79.7 26.3" xml:space="preserve">
<g>
	<path fill="#706E6E" d="M8.5,14c0-4.1,3.7-6.5,7.5-6.5c4.2,0,7.5,2.7,7.5,6.5v8.1c0,0,0,1-1.4,1c-1.3,0-1.5-1-1.5-1v-7.5
		c0-2.2-1.6-4.6-4.7-4.6c-2.6,0-4.7,1.8-4.7,4.8v7.4c0,0-0.3,1-1.5,1c-1.2,0-1.4-1-1.4-1S8.5,18.2,8.5,14z"/>
	<path fill="#706E6E" d="M58.7,16.4c-0.9,0-12.8,0-12.8,0c0.2,3.1,3,4.8,5.5,4.8c1.4,0,3.3-0.4,4.4-1.9c0.2-0.2,0.8-0.9,1.9-0.7
		c1.1,0.2,1.2,0.7,1.1,0.9c-1.6,2.9-4.6,4.1-7.3,4.1c-5.8,0-8.7-3.7-8.7-8c0-4.3,2.9-8,8.7-8c3.8,0,7.9,2.1,8.1,7.9
		C59.7,15.6,59.6,16.4,58.7,16.4z M56.7,14.2c-0.4-2.7-2.5-4.2-5.2-4.2c-2.6,0-5,1.5-5.4,4.2H56.7z"/>
	<path fill="#706E6E" d="M75.7,17.6c1.1,0.1,1.3,0.6,1.2,0.9c-1.3,3.8-3.9,5.1-7.5,5.1c-6,0-8.2-4-8.2-7.9c0-4.4,2.7-8.1,8.1-8.1
		c3.5,0,6.4,1.4,7.4,4.2c0.2,0.4-0.2,1.2-1.1,1.3c-1,0.2-1.7-0.7-1.8-1c-0.6-1.4-2.1-2.1-4.2-2.1c-3.7,0-5.3,2.4-5.3,5.6
		c0,3.2,1.6,5.6,5.3,5.6c2.3,0,3.7-0.9,4.4-2.9C74,18.1,74.6,17.5,75.7,17.6z"/>
	<path fill="#706E6E" d="M3.2,9.1c0,0,0.1-1,1.4-1c1.3,0,1.4,1,1.4,1v13c0,0-0.2,1-1.4,1c-1.3,0-1.4-1-1.4-1V9.1z"/>
	<circle fill="#706E6E" cx="4.6" cy="4.5" r="1.8"/>
	<path fill="#706E6E" d="M41.5,3.5c0,0-0.1-1-1.4-1c-1.3,0-1.4,0.9-1.4,1c0,0.1,0,6.1,0,6.1v0.1c-1.2-1-2.7-1.6-4.5-1.8
		c-0.4,0-0.8-0.1-1.3-0.1c-0.2,0-0.3,0-0.5,0c-0.1,0-0.2,0.1-0.2,0.1l-1.5,2.7c0,0,0,0.1,0.1,0.1c0.7-0.3,1.5-0.5,2.4-0.5
		c0,0,0,0,0.1,0c0,0,0,0,0.1,0c0.9,0,1.8,0.2,2.7,0.7c0,0,0,0,0,0c1.1,0.6,2,1.4,2.5,2.6l2.6,4.4c0,0,0.1,0.2,0.1,0
		c0.2-0.7,0.3-1.5,0.3-2.4c0-0.3,0-0.7,0-0.7C41.5,13.2,41.5,3.5,41.5,3.5z"/>
	<path fill="#706E6E" d="M40.5,19.2c-0.3-0.5-1.4-2.5-1.5-2.6c-0.1-0.1-0.1,0-0.1,0c-0.3,1.4-1,2.6-2.2,3.4
		c-0.9,0.7-2.1,1.2-3.4,1.2c-0.1,0-0.2,0-0.2,0c0,0-5.7,0-5.7,0c-0.1,0-0.1,0.1,0,0.1c0.8,0.8,1.8,1.4,2.8,1.7
		c0.2,0.1,0.3,0.1,0.5,0.2h0c0.8,0.2,1.6,0.4,2.4,0.4c2.1,0,4.1-0.8,5.6-1.9c0.8-0.6,1.4-1.4,1.9-2.2C40.5,19.4,40.5,19.3,40.5,19.2
		z"/>
	<path fill="#706E6E" d="M26.4,20c0.2,0,3.1,0,3.1,0s0.2,0-0.1-0.2c-1.3-1-2.1-2.6-2.1-4.2c0,0,0,0,0,0c0,0,0,0,0-0.1
		c0-1.2,0.4-2.2,1-3.1c0,0,2.4-4.2,2.5-4.3C30.9,8,30.8,8,30.7,8c-3.1,0.9-5.7,3.6-5.9,7.1c0,0,0,0.1,0,0.1c0,0.1,0,0.2,0,0.3
		c0,1.6,0.5,3.1,1.4,4.3C26.2,19.9,26.2,20,26.4,20z"/>
</g>
</svg>
